<!-- Copyright 2024 Project Vane and contributors. Use of this source code is governed by the Vane 2.0 license. -->
<svg width="40" height="40" viewBox="0 0 40 40" fill="none" xmlns="http://www.w3.org/2000/svg">
  <path style="fill:#ff0000;stroke:#ffffff;stroke-width:0.756514;stroke-linecap:butt;stroke-miterlimit:5;stroke-dasharray:none"
        d="m 16.701526,10.181506 6.345978,-7.5211591 -2.350362,10.3415941 9.166411,-4.935761 -4.230651,8.69634 7.286123,3.290508 -9.40145,0.470072 4.113136,6.698532 -6.816051,-2.702916 -2.467879,7.99123 L 15.643863,25.341342 9.4154031,31.687319 12.588392,23.343534 4.2446061,23.578571 10.23803,20.053028 2.2467984,14.529676 11.883283,15.234784 11.765765,3.3654555 Z"/>
  <path style="fill:#ff0000;stroke:#ffffff;stroke-width:0.5;stroke-linecap:butt;stroke-miterlimit:5;stroke-dasharray:none"
        d="m 23.016332,20.836755 2.092394,-5.318167 1.830845,7.236195 5.841266,-4.620703 -3.138591,7.497745 8.108026,0.261549 -5.928449,2.441126 4.359154,2.702676 -6.713097,0.959013 0.174366,5.579717 -4.446337,-5.754083 -0.784648,6.451548 -3.661689,-6.887463 -5.754083,0.959014 5.143801,-4.707887 -5.143801,-6.189998 6.887463,1.13338 -0.959014,-4.795069 z"/>
</svg>
